<?xml version="1.0" encoding="UTF-8"?>
<svg width="220" height="56" viewBox="0 0 220 56" fill="none" xmlns="http://www.w3.org/2000/svg" role="img" aria-label="GPhT logo">
  <defs>
    <linearGradient id="gpht_grad_a" x1="0" y1="0" x2="56" y2="56" gradientUnits="userSpaceOnUse">
      <stop stop-color="#1FB6FF"/>
      <stop offset="1" stop-color="#2EE59D"/>
    </linearGradient>
    <linearGradient id="gpht_grad_b" x1="56" y1="0" x2="0" y2="56" gradientUnits="userSpaceOnUse">
      <stop stop-color="#2EE59D"/>
      <stop offset="1" stop-color="#6A7CFF"/>
    </linearGradient>
    <filter id="softShadow" x="-30%" y="-30%" width="160%" height="160%" color-interpolation-filters="sRGB">
      <feDropShadow dx="0" dy="3" stdDeviation="4" flood-color="#0B1220" flood-opacity="0.12"/>
    </filter>
  </defs>

  <!-- Mark -->
  <g filter="url(#softShadow)" transform="translate(4,4)">
    <rect x="0" y="0" width="48" height="48" rx="16" fill="white"/>
    <!-- Soft blob background -->
    <path d="M8 25.5C8 16.387 15.387 9 24.5 9C33.613 9 41 16.387 41 25.5C41 34.613 33.613 42 24.5 42C15.387 42 8 34.613 8 25.5Z" fill="url(#gpht_grad_a)" fill-opacity="0.18"/>
    <!-- G shape (rounded) -->
    <path d="M24 14C17.373 14 12 19.373 12 26C12 32.627 17.373 38 24 38C28.077 38 31.679 35.94 33.82 32.8C34.332 32.05 34.106 31.022 33.338 30.536L31.93 29.646C31.171 29.166 30.174 29.395 29.646 30.13C28.454 31.788 26.345 33 24 33C20.134 33 17 29.866 17 26C17 22.134 20.134 19 24 19C25.909 19 27.64 19.76 28.906 20.99H25.7C24.761 20.99 24 21.751 24 22.69V24.51C24 25.449 24.761 26.21 25.7 26.21H34.5C35.328 26.21 36 25.538 36 24.71V22.9C36 22.51 35.848 22.135 35.576 21.852C33.331 19.511 30.177 14 24 14Z" fill="url(#gpht_grad_b)"/>
    <!-- Small accent dot -->
    <circle cx="35.5" cy="14.5" r="3.5" fill="#2EE59D"/>
  </g>

  <!-- Wordmark -->
  <g transform="translate(64,14)">
    <text x="0" y="20" font-family="ui-sans-serif, system-ui, -apple-system, Segoe UI, Roboto, Helvetica, Arial" font-size="24" font-weight="800" fill="#0B1220" letter-spacing="-0.5">
      GPhT
    </text>
    <text x="0" y="38" font-family="ui-sans-serif, system-ui, -apple-system, Segoe UI, Roboto, Helvetica, Arial" font-size="11" font-weight="600" fill="#5B6472">
      patient virtuel • physiothérapie
    </text>
  </g>
</svg>
